# xmcd CD database file
#
# Track frame offsets:
#	150
#	3056
#	19247
#	35514
#	52564
#	71406
#	86870
#	103675
#	119646
#	134673
#	137940
#	157893
#	174708
#	189267
#
# Disc length: 2801 seconds
#
# Revision: 0
# Processed by: cddbd v1.5.2PL0 Copyright (c) Steve Scherf et al.
# Submitted via: CDex 1.70beta2
#
DISCID=b80aef0e
DTITLE=Sofia Gon's - Comme avant
DYEAR=1900
DGENRE=Jazz
TTITLE0=Comme avant
TTITLE1=Paris s'eveille
TTITLE2=Tu sais
TTITLE3=On a beau dire
TTITLE4=Good times(feat Vigon)
TTITLE5=Le maxmum
TTITLE6=Toi et ton match
TTITLE7=Monotonie
TTITLE8=Ca fait tenir debout
TTITLE9=Ces mots
TTITLE10=Nos lendemains
TTITLE11=Comment vivre sans toi
TTITLE12=L'essentiel
TTITLE13=Vous dites
EXTD=
EXTT0=
EXTT1=
EXTT2=
EXTT3=
EXTT4=
EXTT5=
EXTT6=
EXTT7=
EXTT8=
EXTT9=
EXTT10=
EXTT11=
EXTT12=
EXTT13=
PLAYORDER=
